<svg xmlns="http://www.w3.org/2000/svg" xmlns:xlink="http://www.w3.org/1999/xlink" width="1024" zoomAndPan="magnify" viewBox="0 0 768 767.999994" height="1024" preserveAspectRatio="xMidYMid meet" version="1.0"><defs><g/><clipPath id="e36ceeb7c7"><path d="M 14.828125 0 L 753.171875 0 L 753.171875 768 L 14.828125 768 Z M 14.828125 0 " clip-rule="nonzero"/></clipPath><clipPath id="2224998dac"><path d="M 617.417969 768 L 150.582031 768 C 75.777344 768 14.828125 707.046875 14.828125 632.242188 L 14.828125 135.757812 C 14.828125 60.953125 75.777344 0 150.582031 0 L 617.417969 0 C 692.222656 0 753.171875 60.953125 753.171875 135.757812 L 753.171875 632.242188 C 753.171875 707.046875 692.222656 768 617.417969 768 Z M 617.417969 768 " clip-rule="nonzero"/></clipPath></defs><g clip-path="url(#e36ceeb7c7)"><g clip-path="url(#2224998dac)"><path fill="#ebe2e2" d="M 14.828125 0 L 753.171875 0 L 753.171875 767.1875 L 14.828125 767.1875 Z M 14.828125 0 " fill-opacity="1" fill-rule="nonzero"/></g></g><g fill="#000000" fill-opacity="1"><g transform="translate(93.931844, 657.802221)"><g><path d="M 40.25 -517.484375 L 144.390625 -517.484375 C 196.773438 -517.484375 235.210938 -506.726562 259.703125 -485.21875 C 284.191406 -463.71875 296.4375 -428.6875 296.4375 -380.125 C 296.4375 -313.6875 275.140625 -273.441406 232.546875 -259.390625 L 306.015625 0 L 236.390625 0 L 168.65625 -242.765625 L 112.4375 -242.765625 L 112.4375 0 L 40.25 0 Z M 139.90625 -294.515625 C 171 -294.515625 193.253906 -300.691406 206.671875 -313.046875 C 220.085938 -325.398438 226.796875 -347.757812 226.796875 -380.125 C 226.796875 -401.425781 224.453125 -418.144531 219.765625 -430.28125 C 215.085938 -442.414062 206.785156 -451.359375 194.859375 -457.109375 C 182.929688 -462.859375 166.109375 -465.734375 144.390625 -465.734375 L 112.4375 -465.734375 L 112.4375 -294.515625 Z M 139.90625 -294.515625 "/></g></g></g><g fill="#000000" fill-opacity="1"><g transform="translate(425.506275, 657.802221)"><g><path d="M 88.796875 -194.21875 L 7.671875 -369.265625 L 72.828125 -369.265625 L 127.140625 -252.359375 L 175.046875 -369.265625 L 242.140625 -369.265625 L 157.796875 -185.90625 L 243.40625 0 L 178.25 0 L 120.109375 -125.21875 L 70.28125 0 L 5.75 0 Z M 88.796875 -194.21875 "/></g></g></g></svg>